<?xml version="1.0" encoding="UTF-8" standalone="no"?>
<svg
   version="1.1"
   viewBox="0 0 1080 1080"
   width="1280"
   height="1280"
   id="svg7"
   sodipodi:docname="complejo.svg"
   inkscape:version="1.3.2 (091e20e, 2023-11-25)"
   xmlns:inkscape="http://www.inkscape.org/namespaces/inkscape"
   xmlns:sodipodi="http://sodipodi.sourceforge.net/DTD/sodipodi-0.dtd"
   xmlns="http://www.w3.org/2000/svg"
   xmlns:svg="http://www.w3.org/2000/svg">
  <sodipodi:namedview
     id="namedview1"
     pagecolor="#ffffff"
     bordercolor="#000000"
     borderopacity="0.25"
     inkscape:showpageshadow="2"
     inkscape:pageopacity="0.0"
     inkscape:pagecheckerboard="0"
     inkscape:deskcolor="#d1d1d1"
     showgrid="false"
     inkscape:zoom="0.29223397"
     inkscape:cx="679.25025"
     inkscape:cy="651.87492"
     inkscape:window-width="1360"
     inkscape:window-height="731"
     inkscape:window-x="0"
     inkscape:window-y="0"
     inkscape:window-maximized="1"
     inkscape:current-layer="svg7" />
  <defs
     id="defs7" />
  <path
     d="M 0,0 H 1080 V 1080 H 0 Z"
     fill="#f6efda"
     id="path1" />
  <ellipse
     style="fill:#800000;fill-opacity:1;stroke-width:0.84375"
     id="19"
     cx="819.98578"
     cy="355.84991"
     rx="42.787037"
     ry="44.132515" />
  <ellipse
     style="fill:#800000;fill-opacity:1;stroke-width:0.84375"
     id="18"
     cx="714.75964"
     cy="355.81738"
     rx="42.787037"
     ry="44.132515" />
  <ellipse
     style="fill:#800000;fill-opacity:1;stroke-width:0.84375"
     id="parasol-5"
     cx="609.53351"
     cy="355.81738"
     rx="42.787037"
     ry="44.132515" />
  <ellipse
     style="fill:#800000;fill-opacity:1;stroke-width:0.84375"
     id="16"
     cx="504.30737"
     cy="355.81738"
     rx="42.787037"
     ry="44.132515" />
  <path
     d="m 541,949 h 3 l 7,14 8,9 11,7 9,3 10,1 12,-2 10,-4 8,-6 7,-7 5,-8 h 3 l 6,10 6,7 12,8 13,4 h 17 l 10,-3 10,-6 9,-8 6,-10 2,-4 h 3 l 4,10 9,10 10,5 9,2 12,-1 11,-4 11,-7 7,-7 7,-12 3,-1 3,5 6,11 10,10 12,6 10,2 h 8 l 13,-3 11,-6 9,-9 6,-9 4,2 7,11 9,8 12,6 7,2 11,1 14,-3 12,-6 9,-8 7,-11 3,-4 h 2 l 5,11 7,8 8,5 12,3 16,-2 12,-6 10,-9 7,-8 2,-5 4,2 v 123 l -1,2 -169,1 -531,1 H 4 l -1,-121 -1,-7 4,-1 7,14 7,8 11,7 12,4 h 15 l 10,-3 12,-7 9,-10 3,-6 h 4 l 7,11 9,9 14,7 9,2 h 11 l 12,-3 10,-5 11,-10 6,-10 2,-3 4,1 3,8 5,7 9,6 8,3 6,1 h 9 l 13,-4 10,-7 5,-4 10,-13 2,-3 4,2 7,14 9,9 13,7 10,2 13,-1 12,-4 10,-7 8,-9 4,-6 h 3 l 6,10 7,8 11,7 13,4 h 16 l 10,-3 11,-6 7,-6 7,-10 3,-6 h 3 l 4,10 9,10 11,5 4,1 h 16 l 12,-5 8,-6 5,-5 8,-9 z"
     fill="#0cc0de"
     id="path2" />
  <path
     d="m 541,949 h 3 l 7,14 8,9 11,7 9,3 10,1 12,-2 10,-4 8,-6 7,-7 5,-8 h 3 l 6,10 6,7 12,8 13,4 h 17 l 10,-3 10,-6 9,-8 6,-10 2,-4 h 3 l 4,10 9,10 10,5 9,2 12,-1 11,-4 11,-7 7,-7 7,-12 3,-1 3,5 6,11 10,10 12,6 10,2 h 8 l 13,-3 11,-6 9,-9 6,-9 4,2 7,11 9,8 12,6 7,2 11,1 14,-3 12,-6 9,-8 7,-11 3,-4 h 2 l 5,11 7,8 8,5 12,3 16,-2 12,-6 10,-9 7,-8 2,-5 4,2 v 123 l -1,2 -169,1 -531,1 H 4 l -1,-121 -1,-7 4,-1 7,14 7,8 11,7 12,4 h 15 l 10,-3 12,-7 9,-10 3,-6 h 4 l 7,11 9,9 14,7 9,2 h 11 l 12,-3 10,-5 11,-10 6,-10 2,-3 4,1 3,8 5,7 9,6 8,3 6,1 h 9 l 13,-4 10,-7 5,-4 10,-13 2,-3 4,2 7,14 9,9 13,7 10,2 13,-1 12,-4 10,-7 8,-9 4,-6 h 3 l 6,10 7,8 11,7 13,4 h 16 l 10,-3 11,-6 7,-6 7,-10 3,-6 h 3 l 4,10 9,10 11,5 4,1 h 16 l 12,-5 8,-6 5,-5 8,-9 z m 0,7 -11,14 -11,9 -11,5 -7,2 h -15 l -12,-4 -11,-8 -6,-10 h -2 l -7,10 -9,8 -14,7 -8,2 h -17 l -13,-4 -11,-7 -6,-5 -7,-10 h -2 l -7,9 -10,8 -12,5 -10,2 -13,-1 -10,-3 -10,-6 -8,-7 -7,-11 -3,-3 -8,10 -7,7 -7,5 -13,5 -5,1 h -12 l -12,-4 -9,-6 -7,-8 -2,-4 h -2 l -8,11 -10,8 -10,5 -12,3 h -13 l -12,-3 -11,-6 -10,-9 -6,-8 -3,1 -6,8 -11,8 -12,5 -4,1 H 42 l -12,-4 -10,-6 -5,-4 -6,-8 H 8 v 110 h 284 l 782,-2 V 963 l -7,6 -8,7 -14,7 -10,2 -14,-1 -12,-5 -9,-8 -5,-8 h -2 l -6,8 -5,5 -7,6 -11,5 -6,2 -8,1 h -9 l -12,-3 -10,-5 -9,-7 -7,-8 -3,-4 -11,12 -10,7 -11,4 -5,1 h -13 l -9,-2 -12,-6 -10,-9 -7,-10 -2,-4 -5,5 -7,8 -7,6 -14,7 -10,2 h -10 l -10,-3 -10,-6 -7,-8 -3,-6 -4,4 -7,9 -10,8 -12,5 -7,2 h -16 l -13,-4 -9,-5 -10,-9 -6,-8 h -2 l -7,9 -10,8 -12,5 -10,2 -12,-1 -13,-4 -10,-7 -5,-4 -10,-15 z"
     id="path3" />
  <path
     d="m 547,1000 h 3 l 2,9 4,6 6,5 9,3 h 9 l 13,-4 10,-6 h 4 l 5,6 8,5 12,3 h 14 l 16,-4 28,-10 h 7 l 3,4 4,8 7,4 h 15 l 13,-5 8,-4 4,-1 h 7 l 13,8 8,2 h 12 l 12,-5 7,-6 2,-3 4,1 5,8 5,4 6,2 8,1 v 3 l -2,1 h -10 l -8,-4 -6,-7 -4,2 -7,5 -13,4 h -12 l -10,-3 -11,-7 -9,1 -17,8 -4,1 h -16 l -10,-5 -5,-6 -1,-6 -9,3 -25,9 -16,3 h -12 l -12,-3 -11,-6 -5,-5 -6,2 -10,5 -8,2 h -11 l -11,-4 -8,-7 -5,-9 -12,10 -12,7 -15,5 -8,1 -1,-3 20,-6 11,-6 10,-8 z"
     fill="#dbdbdb"
     id="path4" />
  <path
     d="m 113,1010 4,1 5,10 8,6 3,1 h 13 l 8,-4 5,-5 4,2 10,6 12,3 h 9 l 11,-3 10,-6 2,-2 4,1 6,8 8,5 3,1 h 13 l 9,-4 8,-7 4,1 6,7 8,4 7,2 h 12 l 7,-1 -1,4 -9,3 h -10 l -12,-4 -9,-7 -2,-2 -10,7 -11,3 h -7 l -11,-4 -8,-6 -3,-4 -5,2 -10,5 -11,2 h -10 l -13,-4 -8,-5 -4,1 -12,6 h -13 l -9,-4 -7,-7 -4,-5 -7,7 -11,7 -10,5 -14,3 H 61 v -2 l 15,-3 12,-4 12,-7 10,-9 z"
     fill="#dbdbdb"
     id="path5" />
  <path
     d="m 921,1016 3,1 5,8 8,4 h 14 l 10,-4 9,-6 4,1 4,8 5,4 5,2 h 10 l 8,-4 6,-7 4,2 4,5 8,3 8,-1 4,-2 h 3 l -2,4 -5,3 h -12 l -8,-4 -2,-4 h -2 l -2,4 -8,5 -3,1 h -12 l -10,-5 -7,-9 -10,6 -9,3 h -14 l -10,-5 -5,-6 -9,6 -10,5 -10,2 h -6 v -3 l 14,-3 10,-5 z"
     fill="#dbdbdb"
     id="path6" />
  <path
     d="m 424,1018 h 3 l 2,8 4,5 5,2 h 15 l 9,-1 v 3 l -10,3 h -12 l -8,-3 -5,-5 -2,-5 -13,9 -7,3 -6,1 h -11 l -7,-3 -4,-4 v -3 l -10,8 -9,4 -4,1 h -11 l 2,-2 16,-4 10,-7 6,-7 h 3 v 7 l 5,5 4,1 h 10 l 12,-4 8,-6 z"
     fill="#dbdbdb"
     id="path7" />
  <rect
     style="fill:#800000;stroke-width:1.67088"
     id="1"
     width="128.27838"
     height="103.52036"
     x="97.614021"
     y="44.651463" />
  <rect
     style="fill:#800000;stroke-width:1.67088"
     id="2"
     width="128.27838"
     height="103.52036"
     x="253.28096"
     y="43.440315" />
  <rect
     style="fill:#800000;stroke-width:1.67088"
     id="3"
     width="128.27838"
     height="103.52036"
     x="411.72162"
     y="43.440315">
    <title
       id="title25">3</title>
  </rect>
  <rect
     style="fill:#800000;stroke-width:1.67088"
     id="4"
     width="128.27838"
     height="103.52036"
     x="570.16229"
     y="43.440315" />
  <rect
     style="fill:#800000;stroke-width:1.67088"
     id="5"
     width="128.27838"
     height="103.52036"
     x="726.35712"
     y="43.440315" />
  <rect
     style="fill:#800000;stroke-width:1.67088"
     id="6"
     width="128.27838"
     height="103.52036"
     x="887.67847"
     y="43.440315" />
  <rect
     style="fill:#552200;stroke-width:0.592427"
     id="rect7-1-6-0-1"
     width="78.443893"
     height="21.281479"
     x="188.5092"
     y="-723.22986"
     transform="rotate(89.689566)" />
  <path
     d="m 720.84685,237.75504 0.0101,1.87217 -4.45307,1.27225 -2.77387,2.51126 -1.09806,3.1262 0.0507,9.36066 0.58792,5.6133 -1.67244,0.009 -1.70626,-6.23135 -0.0406,-7.48849 1.6454,-5.00139 2.77049,-3.13525 2.78064,-1.26319 -5.06127,-8.08539 -1.69612,-4.35922 -0.57777,-3.74123 -0.0372,-6.86446 1.64878,-4.37734 2.21639,-2.50825 1.67244,-0.009 -4.49365,-6.21625 -2.26035,-5.60429 -0.571,-2.49315 -0.0372,-6.86445 1.12173,1.24204 2.28402,9.97258 3.93616,6.21926 3.92265,3.72312 0.0101,1.87212 -3.90236,0.0211 -2.77049,3.1353 -0.54395,2.49919 0.0338,6.24042 2.27049,7.47645 3.37192,4.97421 z"
     fill="#dbdbdb"
     id="path7-8"
     style="fill:#803300;stroke-width:0.589831" />
  <rect
     style="fill:#552200;stroke-width:0.592427"
     id="rect7-1-6-0-1-1"
     width="78.443893"
     height="21.281479"
     x="187.77757"
     y="-696.94275"
     transform="rotate(89.689566)" />
  <path
     d="m 694.55612,237.16587 0.0101,1.87208 -4.45307,1.27224 -2.77387,2.51127 -1.09806,3.12629 0.0507,9.36067 0.58791,5.61329 -1.67244,0.009 -1.70625,-6.23135 -0.0406,-7.48849 1.6454,-5.00139 2.77049,-3.13536 2.78064,-1.26318 -5.06127,-8.0853 -1.69612,-4.35924 -0.57776,-3.74123 -0.0372,-6.86446 1.64878,-4.37735 2.21639,-2.50824 1.67244,-0.009 -4.49365,-6.21626 -2.26035,-5.60428 -0.571,-2.49316 -0.0372,-6.86445 1.12172,1.24204 2.28402,9.97259 3.93616,6.21926 3.92265,3.72311 0.0101,1.87213 -3.90236,0.0211 -2.77049,3.1353 -0.54395,2.49919 0.0338,6.24042 2.27049,7.47638 3.37192,4.9742 z"
     fill="#dbdbdb"
     id="path7-8-4"
     style="fill:#803300;stroke-width:0.589831" />
  <rect
     style="fill:#552200;stroke-width:0.592427"
     id="rect7-1-6-0-1-5"
     width="78.443893"
     height="21.281479"
     x="188.29753"
     y="-671.09802"
     transform="rotate(89.689566)" />
  <path
     d="m 668.7146,237.8258 0.0101,1.87217 -4.45307,1.27224 -2.77388,2.51127 -1.09804,3.12619 0.0507,9.36067 0.5879,5.61329 -1.67243,0.009 -1.70625,-6.23135 -0.0406,-7.48849 1.64538,-5.00139 2.7705,-3.13526 2.78064,-1.26318 -5.06128,-8.0854 -1.69611,-4.35923 -0.57776,-3.74123 -0.0372,-6.86446 1.64877,-4.37735 2.21639,-2.50824 1.67243,-0.009 -4.49364,-6.21626 -2.26035,-5.60428 -0.57101,-2.49316 -0.0372,-6.86444 1.12173,1.24204 2.28401,9.97258 3.93617,6.21926 3.92265,3.72311 0.0101,1.87213 -3.90236,0.0211 -2.77049,3.1353 -0.54395,2.49919 0.0338,6.24042 2.27049,7.47637 3.37193,4.9742 z"
     fill="#dbdbdb"
     id="path7-8-3"
     style="fill:#803300;stroke-width:0.589831" />
  <rect
     style="fill:#552200;stroke-width:0.592427"
     id="rect7-1-6-0-1-1-1"
     width="78.443893"
     height="21.281479"
     x="187.5659"
     y="-644.81085"
     transform="rotate(89.689566)" />
  <path
     d="m 642.42388,237.23663 0.0101,1.87207 -4.45308,1.27225 -2.77387,2.51127 -1.09805,3.12629 0.0507,9.36056 0.58792,5.6134 -1.67245,0.009 -1.70625,-6.23134 -0.0406,-7.48849 1.64539,-5.00139 2.77049,-3.13536 2.78064,-1.26318 -5.06127,-8.0853 -1.69611,-4.35926 -0.57777,-3.74123 -0.0372,-6.86446 1.64877,-4.37735 2.21639,-2.50824 1.67245,-0.009 -4.49366,-6.21625 -2.26035,-5.60429 -0.57099,-2.49315 -0.0372,-6.86445 1.12172,1.24204 2.28402,9.97258 3.93617,6.21927 3.92264,3.72311 0.0101,1.87212 -3.90235,0.0211 -2.77049,3.13529 -0.54396,2.4992 0.0338,6.24041 2.27049,7.47641 3.37193,4.9742 z"
     fill="#dbdbdb"
     id="path7-8-4-7"
     style="fill:#803300;stroke-width:0.589831" />
  <rect
     style="fill:#552200;stroke-width:0.592427"
     id="rect7-1-6-0-1-6"
     width="78.443893"
     height="21.281479"
     x="188.43553"
     y="-618.49884"
     transform="rotate(89.689566)" />
  <path
     d="m 616.11694,238.24888 0.0101,1.87207 -4.45307,1.27225 -2.77388,2.51126 -1.09804,3.1263 0.0507,9.36056 0.58791,5.6134 -1.67244,0.009 -1.70625,-6.23135 -0.0406,-7.48849 1.64539,-5.00139 2.77049,-3.13535 2.78064,-1.26319 -5.06128,-8.08539 -1.69611,-4.35919 -0.57776,-3.74123 -0.0372,-6.86445 1.64877,-4.37735 2.21639,-2.50825 1.67244,-0.009 -4.49365,-6.21625 -2.26035,-5.60429 -0.57101,-2.49315 -0.0372,-6.86445 1.12173,1.24204 2.28401,9.97258 3.93618,6.21927 3.92264,3.72311 0.0101,1.87212 -3.90235,0.0211 -2.7705,3.1353 -0.54395,2.49919 0.0338,6.24042 2.27049,7.47642 3.37193,4.97421 z"
     fill="#dbdbdb"
     id="path7-8-2"
     style="fill:#803300;stroke-width:0.589831" />
  <rect
     style="fill:#552200;stroke-width:0.592427"
     id="rect7-1-6-0-1-1-4"
     width="78.443893"
     height="21.281479"
     x="187.7039"
     y="-592.21167"
     transform="rotate(89.689566)" />
  <path
     d="m 589.82622,237.65962 0.0101,1.87217 -4.45308,1.27224 -2.77387,2.51127 -1.09805,3.1262 0.0507,9.36066 0.58792,5.61329 -1.67245,0.009 -1.70625,-6.23135 -0.0406,-7.48849 1.64539,-5.00139 2.77049,-3.13526 2.78064,-1.26318 -5.06127,-8.0854 -1.69611,-4.35921 -0.57777,-3.74123 -0.0372,-6.86446 1.64877,-4.37735 2.21639,-2.50824 1.67245,-0.009 -4.49365,-6.21626 -2.26036,-5.60428 -0.57099,-2.49316 -0.0372,-6.86444 1.12172,1.24204 2.28402,9.97258 3.93617,6.21926 3.92264,3.72311 0.0101,1.87213 -3.90235,0.0211 -2.77049,3.1353 -0.54396,2.49919 0.0338,6.24042 2.27049,7.47645 3.37193,4.9742 z"
     fill="#dbdbdb"
     id="path7-8-4-4"
     style="fill:#803300;stroke-width:0.589831" />
  <rect
     style="fill:#552200;stroke-width:0.592427"
     id="rect7-1-6-0-1-5-0"
     width="78.443893"
     height="21.281479"
     x="188.22386"
     y="-566.36694"
     transform="rotate(89.689566)" />
  <path
     d="m 563.98468,238.31954 0.0102,1.87217 -4.45307,1.27224 -2.77388,2.51127 -1.09805,3.1262 0.0507,9.36066 0.5879,5.6134 -1.67243,0.009 -1.70625,-6.23145 -0.0406,-7.48849 1.64538,-5.00139 2.7705,-3.13525 2.78063,-1.26319 -5.06127,-8.0854 -1.69611,-4.3592 -0.57776,-3.74123 -0.0372,-6.86446 1.64876,-4.37734 2.2164,-2.50825 1.67243,-0.009 -4.49364,-6.21626 -2.26035,-5.60428 -0.57101,-2.49315 -0.0372,-6.86445 1.12173,1.24204 2.28401,9.97258 3.93617,6.21926 3.92265,3.72311 0.0101,1.87213 -3.90236,0.0211 -2.77049,3.1353 -0.54395,2.49919 0.0338,6.24042 2.27049,7.47644 3.37193,4.97421 z"
     fill="#dbdbdb"
     id="path7-8-3-6"
     style="fill:#803300;stroke-width:0.589831" />
  <rect
     style="fill:#552200;stroke-width:0.592427"
     id="rect7-1-6-0-1-1-1-7"
     width="78.443893"
     height="21.281479"
     x="187.49223"
     y="-540.07983"
     transform="rotate(89.689566)" />
  <path
     d="m 537.69397,237.73037 0.0101,1.87218 -4.45308,1.27224 -2.77388,2.51127 -1.09804,3.12619 0.0507,9.36066 0.58791,5.6133 -1.67244,0.009 -1.70625,-6.23134 -0.0406,-7.48849 1.64538,-5.00139 2.7705,-3.13526 2.78064,-1.26318 -5.06128,-8.0854 -1.6961,-4.35923 -0.57777,-3.74123 -0.0372,-6.86446 1.64877,-4.37735 2.21639,-2.50824 1.67244,-0.009 -4.49365,-6.21625 -2.26035,-5.60429 -0.571,-2.49315 -0.0372,-6.86445 1.12172,1.24204 2.28401,9.97258 3.93618,6.21927 3.92264,3.72311 0.0101,1.87212 -3.90235,0.0211 -2.7705,3.13529 -0.54395,2.4992 0.0338,6.24042 2.27049,7.47637 3.37193,4.9742 z"
     fill="#dbdbdb"
     id="path7-8-4-7-3"
     style="fill:#803300;stroke-width:0.589831" />
  <rect
     style="fill:#552200;stroke-width:0.592427"
     id="rect7-1-6-0-1-17"
     width="78.443893"
     height="21.281479"
     x="187.10747"
     y="-510.86633"
     transform="rotate(89.689566)" />
  <path
     d="m 508.47879,237.50386 0.0101,1.87217 -4.45307,1.27225 -2.77388,2.51126 -1.09805,3.1262 0.0507,9.36066 0.5879,5.6134 -1.67243,0.009 -1.70625,-6.23135 -0.0406,-7.48849 1.64539,-5.00149 2.77049,-3.13525 2.78064,-1.26319 -5.06127,-8.08539 -1.69612,-4.3592 -0.57775,-3.74123 -0.0372,-6.86445 1.64876,-4.37735 2.2164,-2.50825 1.67243,-0.009 -4.49365,-6.21625 -2.26034,-5.60429 -0.57101,-2.49315 -0.0372,-6.86445 1.12173,1.24204 2.28401,9.97258 3.93617,6.21927 3.92265,3.72311 0.0101,1.87212 -3.90237,0.0211 -2.77048,3.1353 -0.54396,2.49919 0.0338,6.24042 2.27049,7.47643 3.37193,4.97421 z"
     fill="#dbdbdb"
     id="path7-8-0"
     style="fill:#803300;stroke-width:0.589831" />
  <rect
     style="fill:#552200;stroke-width:0.592427"
     id="rect7-1-6-0-1-1-5"
     width="78.443893"
     height="21.281479"
     x="186.37584"
     y="-484.57916"
     transform="rotate(89.689566)" />
  <path
     d="m 482.18806,236.9147 0.0101,1.87217 -4.45307,1.27224 -2.77388,2.51127 -1.09805,3.1262 0.0507,9.36066 0.58791,5.61329 -1.67244,0.009 -1.70625,-6.23135 -0.0406,-7.48849 1.64539,-5.00139 2.77049,-3.13526 2.78064,-1.26318 -5.06127,-8.0854 -1.69611,-4.35922 -0.57776,-3.74123 -0.0372,-6.86446 1.64876,-4.37735 2.2164,-2.50824 1.67243,-0.009 -4.49364,-6.21626 -2.26035,-5.60428 -0.57101,-2.49316 -0.0372,-6.86444 1.12173,1.24204 2.28401,9.97258 3.93617,6.21926 3.92265,3.72311 0.0101,1.87213 -3.90237,0.0211 -2.77048,3.1353 -0.54396,2.49919 0.0338,6.24042 2.27049,7.47641 3.37192,4.97425 z"
     fill="#dbdbdb"
     id="path7-8-4-5"
     style="fill:#803300;stroke-width:0.589831" />
  <rect
     style="fill:#552200;stroke-width:0.592427"
     id="rect7-1-6-0-1-5-4"
     width="78.443893"
     height="21.281479"
     x="186.89574"
     y="-458.73444"
     transform="rotate(89.689566)" />
  <path
     d="m 456.34654,237.57462 0.0101,1.87217 -4.45308,1.27224 -2.77387,2.51127 -1.09805,3.1262 0.0507,9.36066 0.5879,5.6133 -1.67243,0.009 -1.70625,-6.23135 -0.0406,-7.48849 1.64539,-5.00139 2.77049,-3.13525 2.78064,-1.26319 -5.06127,-8.0854 -1.69612,-4.35921 -0.57776,-3.74123 -0.0372,-6.86446 1.64877,-4.37734 2.21639,-2.50825 1.67244,-0.009 -4.49365,-6.21626 -2.26034,-5.60428 -0.57101,-2.49315 -0.0372,-6.86445 1.12173,1.24204 2.28401,9.97258 3.93617,6.21926 3.92264,3.72311 0.0101,1.87213 -3.90236,0.0211 -2.77048,3.1353 -0.54396,2.49919 0.0338,6.24042 2.27049,7.47641 3.37193,4.97425 z"
     fill="#dbdbdb"
     id="path7-8-3-9"
     style="fill:#803300;stroke-width:0.589831" />
  <rect
     style="fill:#552200;stroke-width:0.592427"
     id="rect7-1-6-0-1-1-1-9"
     width="78.443893"
     height="21.281479"
     x="186.16411"
     y="-432.44727"
     transform="rotate(89.689566)" />
  <path
     d="m 430.05582,236.98545 0.0101,1.87208 -4.45308,1.27224 -2.77388,2.51127 -1.09805,3.12629 0.0507,9.36066 0.58791,5.6133 -1.67244,0.009 -1.70625,-6.23134 -0.0406,-7.48849 1.64538,-5.00139 2.7705,-3.13536 2.78063,-1.26318 -5.06127,-8.08532 -1.6961,-4.35923 -0.57777,-3.74122 -0.0372,-6.86446 1.64876,-4.37735 2.2164,-2.50824 1.67244,-0.009 -4.49365,-6.21625 -2.26035,-5.60429 -0.571,-2.49315 -0.0372,-6.86445 1.12171,1.24204 2.28402,9.97258 3.93617,6.21927 3.92264,3.72311 0.0101,1.87212 -3.90235,0.0212 -2.77049,3.13529 -0.54396,2.4992 0.0338,6.24042 2.27049,7.47641 3.37193,4.97417 z"
     fill="#dbdbdb"
     id="path7-8-4-7-6"
     style="fill:#803300;stroke-width:0.589831" />
  <rect
     style="fill:#552200;stroke-width:0.592427"
     id="rect7-1-6-0-1-6-5"
     width="78.443893"
     height="21.281479"
     x="187.0338"
     y="-406.13525"
     transform="rotate(89.689566)" />
  <path
     d="m 403.74888,237.9977 0.0101,1.87207 -4.45308,1.27225 -2.77387,2.51126 -1.09805,3.1263 0.0507,9.36056 0.5879,5.6134 -1.67243,0.009 -1.70625,-6.23135 -0.0406,-7.48849 1.64539,-5.00138 2.77049,-3.13536 2.78064,-1.26319 -5.06127,-8.08529 -1.69612,-4.35927 -0.57775,-3.74122 -0.0372,-6.86446 1.64876,-4.37735 2.2164,-2.50825 1.67244,-0.009 -4.49365,-6.21625 -2.26035,-5.60429 -0.57101,-2.49315 -0.0372,-6.86445 1.12173,1.24204 2.28401,9.97258 3.93618,6.21927 3.92264,3.72311 0.0101,1.87212 -3.90236,0.0211 -2.77049,3.1353 -0.54396,2.4992 0.0338,6.24041 2.27049,7.47641 3.37193,4.9742 z"
     fill="#dbdbdb"
     id="path7-8-2-8"
     style="fill:#803300;stroke-width:0.589831" />
  <rect
     style="fill:#552200;stroke-width:0.592427"
     id="rect7-1-6-0-1-1-4-1"
     width="78.443893"
     height="21.281479"
     x="186.30217"
     y="-379.84814"
     transform="rotate(89.689566)" />
  <path
     d="m 377.45816,237.40844 0.0101,1.87217 -4.45308,1.27225 -2.77388,2.51126 -1.09805,3.1262 0.0507,9.36066 0.58791,5.6134 -1.67244,0.009 -1.70625,-6.23135 -0.0406,-7.48849 1.64539,-5.00149 2.77049,-3.13525 2.78064,-1.26319 -5.06127,-8.08537 -1.69611,-4.35922 -0.57776,-3.74123 -0.0372,-6.86446 1.64876,-4.37734 2.2164,-2.50825 1.67244,-0.009 -4.49365,-6.21626 -2.26035,-5.60428 -0.571,-2.49315 -0.0372,-6.86445 1.12172,1.24204 2.28401,9.97258 3.93618,6.21926 3.92264,3.72311 0.0101,1.87213 -3.90236,0.0211 -2.77049,3.1353 -0.54396,2.49919 0.0338,6.24042 2.27049,7.47641 3.37193,4.97423 z"
     fill="#dbdbdb"
     id="path7-8-4-4-6"
     style="fill:#803300;stroke-width:0.589831" />
  <rect
     style="fill:#552200;stroke-width:0.592427"
     id="rect7-1-6-0-1-5-0-3"
     width="78.443893"
     height="21.281479"
     x="186.82207"
     y="-354.00342"
     transform="rotate(89.689566)" />
  <path
     d="m 351.61662,238.06846 0.0101,1.87207 -4.45307,1.27225 -2.77387,2.51126 -1.09805,3.1263 0.0507,9.36056 0.5879,5.6134 -1.67243,0.009 -1.70625,-6.23135 -0.0406,-7.48849 1.64539,-5.00139 2.77049,-3.13535 2.78064,-1.26319 -5.06127,-8.08539 -1.69612,-4.35919 -0.57776,-3.74123 -0.0372,-6.86446 1.64877,-4.37734 2.21639,-2.50825 1.67244,-0.009 -4.49365,-6.21626 -2.26034,-5.60428 -0.57101,-2.49315 -0.0372,-6.86445 1.12173,1.24204 2.28401,9.97258 3.93617,6.21926 3.92264,3.72312 0.0101,1.87212 -3.90236,0.0211 -2.77048,3.1353 -0.54396,2.49919 0.0338,6.24042 2.27049,7.47641 3.37193,4.97422 z"
     fill="#dbdbdb"
     id="path7-8-3-6-6"
     style="fill:#803300;stroke-width:0.589831" />
  <rect
     style="fill:#552200;stroke-width:0.592427"
     id="rect7-1-6-0-1-1-1-7-0"
     width="78.443893"
     height="21.281479"
     x="186.09044"
     y="-327.71625"
     transform="rotate(89.689566)" />
  <path
     d="m 325.32591,237.47919 0.0101,1.87218 -4.45309,1.27224 -2.77387,2.51127 -1.09805,3.12619 0.0507,9.36067 0.58792,5.61329 -1.67245,0.009 -1.70625,-6.23134 -0.0406,-7.48849 1.64539,-5.00139 2.77049,-3.13526 2.78064,-1.26318 -5.06127,-8.08539 -1.69611,-4.35923 -0.57777,-3.74122 -0.0372,-6.86446 1.64877,-4.37735 2.2164,-2.50824 1.67244,-0.009 -4.49366,-6.21626 -2.26035,-5.60428 -0.57099,-2.49316 -0.0372,-6.86445 1.12172,1.24204 2.28402,9.97259 3.93617,6.21926 3.92264,3.72311 0.0101,1.87212 -3.90235,0.0212 -2.77049,3.13529 -0.54396,2.4992 0.0338,6.24042 2.27049,7.47641 3.37193,4.97424 z"
     fill="#dbdbdb"
     id="path7-8-4-7-3-1"
     style="fill:#803300;stroke-width:0.589831" />
  <ellipse
     style="fill:#800000;fill-opacity:1;stroke-width:0.84375"
     id="13"
     cx="188.62897"
     cy="355.81738"
     rx="42.787037"
     ry="44.132515" />
  <ellipse
     style="fill:#800000;fill-opacity:1;stroke-width:0.84375"
     id="15"
     cx="399.08124"
     cy="355.81738"
     rx="42.787037"
     ry="44.132515" />
  <ellipse
     style="fill:#800000;fill-opacity:1;stroke-width:0.84375"
     id="14"
     cx="293.8551"
     cy="355.81738"
     rx="42.787037"
     ry="44.132515" />
  <text
     xml:space="preserve"
     style="font-size:63px;fill:#1a1a1a;stroke-width:0.84375"
     x="140.71591"
     y="114.94604"
     id="text1"><tspan
       id="tspan1"
       style="font-size:63px;fill:#1a1a1a;stroke-width:0.84375"
       x="140.71591"
       y="114.94604">1</tspan></text>
  <text
     xml:space="preserve"
     style="font-size:63px;fill:#1a1a1a;stroke-width:0.84375"
     x="297.37067"
     y="114.94604"
     id="text1-6"><tspan
       id="tspan1-7"
       style="font-size:63px;fill:#1a1a1a;stroke-width:0.84375"
       x="297.37067"
       y="114.94604">2</tspan></text>
  <text
     xml:space="preserve"
     style="font-size:63px;fill:#1a1a1a;stroke-width:0.84375"
     x="455.34204"
     y="117.081"
     id="text2"><tspan
       id="tspan2"
       style="stroke-width:0.84375"
       x="455.34204"
       y="117.081">3</tspan></text>
  <text
     xml:space="preserve"
     style="font-size:63px;fill:#1a1a1a;stroke-width:0.84375"
     x="612.48706"
     y="115.07121"
     id="text3"><tspan
       id="tspan3"
       style="stroke-width:0.84375"
       x="612.48706"
       y="115.07121">4</tspan></text>
  <text
     xml:space="preserve"
     style="font-size:63px;fill:#1a1a1a;stroke-width:0.84375"
     x="772.49548"
     y="119.23524"
     id="text4"><tspan
       id="tspan4"
       style="stroke-width:0.84375"
       x="772.49548"
       y="119.23524">5</tspan></text>
  <text
     xml:space="preserve"
     style="font-size:63px;fill:#1a1a1a;stroke-width:0.84375"
     x="928.71356"
     y="116.80787"
     id="text5"><tspan
       id="tspan5"
       style="stroke-width:0.84375"
       x="928.71356"
       y="116.80787">6</tspan></text>
  <text
     xml:space="preserve"
     style="font-size:63px;fill:#1a1a1a;stroke-width:0.84375"
     x="147.41637"
     y="377.92383"
     id="text12"><tspan
       id="tspan12"
       style="stroke-width:0.84375"
       x="147.41637"
       y="377.92383">13</tspan></text>
  <text
     xml:space="preserve"
     style="font-size:63px;fill:#1a1a1a;stroke-width:0.84375"
     x="253.67999"
     y="377.37653"
     id="text13"><tspan
       id="tspan13"
       style="stroke-width:0.84375"
       x="253.67999"
       y="377.37653">14</tspan></text>
  <text
     xml:space="preserve"
     style="font-size:63px;fill:#1a1a1a;stroke-width:0.84375"
     x="360.25488"
     y="377.52783"
     id="text14"><tspan
       id="tspan14"
       style="stroke-width:0.84375"
       x="360.25488"
       y="377.52783">15</tspan></text>
  <text
     xml:space="preserve"
     style="font-size:63px;fill:#1a1a1a;stroke-width:0.84375"
     x="463.88058"
     y="379.19904"
     id="text15"><tspan
       id="tspan15"
       style="stroke-width:0.84375"
       x="463.88058"
       y="379.19904">16</tspan></text>
  <text
     xml:space="preserve"
     style="font-size:63px;fill:#1a1a1a;stroke-width:0.84375"
     x="570.07996"
     y="379.61584"
     id="17"><tspan
       id="tspan16"
       style="stroke-width:0.84375"
       x="570.07996"
       y="379.61584">17</tspan></text>
  <text
     xml:space="preserve"
     style="font-size:63px;fill:#1a1a1a;stroke-width:0.84375"
     x="674.59387"
     y="376.74634"
     id="text17"><tspan
       id="tspan17"
       style="stroke-width:0.84375"
       x="674.59387"
       y="376.74634">18</tspan></text>
  <text
     xml:space="preserve"
     style="font-size:63px;fill:#1a1a1a;stroke-width:0.84375"
     x="777.6145"
     y="377.35956"
     id="text18"><tspan
       id="tspan18"
       style="stroke-width:0.84375"
       x="777.6145"
       y="377.35956">19</tspan></text>
</svg>
