<?xml version="1.0" encoding="UTF-8" standalone="no"?>
<svg
   version="1.1"
   viewBox="0 0 1080 1080"
   width="1280"
   height="1280"
   id="svg7"
   xmlns="http://www.w3.org/2000/svg"
   xmlns:svg="http://www.w3.org/2000/svg">
  <defs
     id="defs7" />
  <path
     d="M 0,0 H 1080 V 1080 H 0 Z"
     fill="#f6efda"
     id="path1" />
  <ellipse
     style="fill:#008000;fill-opacity:1;stroke-width:0.84375"
     id="parasol-38"
     cx="855.67841"
     cy="591.61261"
     rx="42.787037"
     ry="44.132515" />
  <ellipse
     style="fill:#008000;fill-opacity:1;stroke-width:0.84375"
     id="parasol-6"
     cx="750.45227"
     cy="591.58008"
     rx="42.787037"
     ry="44.132515" />
  <ellipse
     style="fill:#008000;fill-opacity:1;stroke-width:0.84375"
     id="parasol-5"
     cx="645.22614"
     cy="591.58008"
     rx="42.787037"
     ry="44.132515" />
  <ellipse
     style="fill:#008000;fill-opacity:1;stroke-width:0.84375"
     id="parasol-4"
     cx="540"
     cy="591.58008"
     rx="42.787037"
     ry="44.132515" />
  <path
     d="m 541,949 h 3 l 7,14 8,9 11,7 9,3 10,1 12,-2 10,-4 8,-6 7,-7 5,-8 h 3 l 6,10 6,7 12,8 13,4 h 17 l 10,-3 10,-6 9,-8 6,-10 2,-4 h 3 l 4,10 9,10 10,5 9,2 12,-1 11,-4 11,-7 7,-7 7,-12 3,-1 3,5 6,11 10,10 12,6 10,2 h 8 l 13,-3 11,-6 9,-9 6,-9 4,2 7,11 9,8 12,6 7,2 11,1 14,-3 12,-6 9,-8 7,-11 3,-4 h 2 l 5,11 7,8 8,5 12,3 16,-2 12,-6 10,-9 7,-8 2,-5 4,2 v 123 l -1,2 -169,1 -531,1 H 4 l -1,-121 -1,-7 4,-1 7,14 7,8 11,7 12,4 h 15 l 10,-3 12,-7 9,-10 3,-6 h 4 l 7,11 9,9 14,7 9,2 h 11 l 12,-3 10,-5 11,-10 6,-10 2,-3 4,1 3,8 5,7 9,6 8,3 6,1 h 9 l 13,-4 10,-7 5,-4 10,-13 2,-3 4,2 7,14 9,9 13,7 10,2 13,-1 12,-4 10,-7 8,-9 4,-6 h 3 l 6,10 7,8 11,7 13,4 h 16 l 10,-3 11,-6 7,-6 7,-10 3,-6 h 3 l 4,10 9,10 11,5 4,1 h 16 l 12,-5 8,-6 5,-5 8,-9 z"
     fill="#0cc0de"
     id="path2" />
  <path
     d="m 541,949 h 3 l 7,14 8,9 11,7 9,3 10,1 12,-2 10,-4 8,-6 7,-7 5,-8 h 3 l 6,10 6,7 12,8 13,4 h 17 l 10,-3 10,-6 9,-8 6,-10 2,-4 h 3 l 4,10 9,10 10,5 9,2 12,-1 11,-4 11,-7 7,-7 7,-12 3,-1 3,5 6,11 10,10 12,6 10,2 h 8 l 13,-3 11,-6 9,-9 6,-9 4,2 7,11 9,8 12,6 7,2 11,1 14,-3 12,-6 9,-8 7,-11 3,-4 h 2 l 5,11 7,8 8,5 12,3 16,-2 12,-6 10,-9 7,-8 2,-5 4,2 v 123 l -1,2 -169,1 -531,1 H 4 l -1,-121 -1,-7 4,-1 7,14 7,8 11,7 12,4 h 15 l 10,-3 12,-7 9,-10 3,-6 h 4 l 7,11 9,9 14,7 9,2 h 11 l 12,-3 10,-5 11,-10 6,-10 2,-3 4,1 3,8 5,7 9,6 8,3 6,1 h 9 l 13,-4 10,-7 5,-4 10,-13 2,-3 4,2 7,14 9,9 13,7 10,2 13,-1 12,-4 10,-7 8,-9 4,-6 h 3 l 6,10 7,8 11,7 13,4 h 16 l 10,-3 11,-6 7,-6 7,-10 3,-6 h 3 l 4,10 9,10 11,5 4,1 h 16 l 12,-5 8,-6 5,-5 8,-9 z m 0,7 -11,14 -11,9 -11,5 -7,2 h -15 l -12,-4 -11,-8 -6,-10 h -2 l -7,10 -9,8 -14,7 -8,2 h -17 l -13,-4 -11,-7 -6,-5 -7,-10 h -2 l -7,9 -10,8 -12,5 -10,2 -13,-1 -10,-3 -10,-6 -8,-7 -7,-11 -3,-3 -8,10 -7,7 -7,5 -13,5 -5,1 h -12 l -12,-4 -9,-6 -7,-8 -2,-4 h -2 l -8,11 -10,8 -10,5 -12,3 h -13 l -12,-3 -11,-6 -10,-9 -6,-8 -3,1 -6,8 -11,8 -12,5 -4,1 H 42 l -12,-4 -10,-6 -5,-4 -6,-8 H 8 v 110 h 284 l 782,-2 V 963 l -7,6 -8,7 -14,7 -10,2 -14,-1 -12,-5 -9,-8 -5,-8 h -2 l -6,8 -5,5 -7,6 -11,5 -6,2 -8,1 h -9 l -12,-3 -10,-5 -9,-7 -7,-8 -3,-4 -11,12 -10,7 -11,4 -5,1 h -13 l -9,-2 -12,-6 -10,-9 -7,-10 -2,-4 -5,5 -7,8 -7,6 -14,7 -10,2 h -10 l -10,-3 -10,-6 -7,-8 -3,-6 -4,4 -7,9 -10,8 -12,5 -7,2 h -16 l -13,-4 -9,-5 -10,-9 -6,-8 h -2 l -7,9 -10,8 -12,5 -10,2 -12,-1 -13,-4 -10,-7 -5,-4 -10,-15 z"
     id="path3" />
  <path
     d="m 547,1000 h 3 l 2,9 4,6 6,5 9,3 h 9 l 13,-4 10,-6 h 4 l 5,6 8,5 12,3 h 14 l 16,-4 28,-10 h 7 l 3,4 4,8 7,4 h 15 l 13,-5 8,-4 4,-1 h 7 l 13,8 8,2 h 12 l 12,-5 7,-6 2,-3 4,1 5,8 5,4 6,2 8,1 v 3 l -2,1 h -10 l -8,-4 -6,-7 -4,2 -7,5 -13,4 h -12 l -10,-3 -11,-7 -9,1 -17,8 -4,1 h -16 l -10,-5 -5,-6 -1,-6 -9,3 -25,9 -16,3 h -12 l -12,-3 -11,-6 -5,-5 -6,2 -10,5 -8,2 h -11 l -11,-4 -8,-7 -5,-9 -12,10 -12,7 -15,5 -8,1 -1,-3 20,-6 11,-6 10,-8 z"
     fill="#dbdbdb"
     id="path4" />
  <path
     d="m 113,1010 4,1 5,10 8,6 3,1 h 13 l 8,-4 5,-5 4,2 10,6 12,3 h 9 l 11,-3 10,-6 2,-2 4,1 6,8 8,5 3,1 h 13 l 9,-4 8,-7 4,1 6,7 8,4 7,2 h 12 l 7,-1 -1,4 -9,3 h -10 l -12,-4 -9,-7 -2,-2 -10,7 -11,3 h -7 l -11,-4 -8,-6 -3,-4 -5,2 -10,5 -11,2 h -10 l -13,-4 -8,-5 -4,1 -12,6 h -13 l -9,-4 -7,-7 -4,-5 -7,7 -11,7 -10,5 -14,3 H 61 v -2 l 15,-3 12,-4 12,-7 10,-9 z"
     fill="#dbdbdb"
     id="path5" />
  <path
     d="m 921,1016 3,1 5,8 8,4 h 14 l 10,-4 9,-6 4,1 4,8 5,4 5,2 h 10 l 8,-4 6,-7 4,2 4,5 8,3 8,-1 4,-2 h 3 l -2,4 -5,3 h -12 l -8,-4 -2,-4 h -2 l -2,4 -8,5 -3,1 h -12 l -10,-5 -7,-9 -10,6 -9,3 h -14 l -10,-5 -5,-6 -9,6 -10,5 -10,2 h -6 v -3 l 14,-3 10,-5 z"
     fill="#dbdbdb"
     id="path6" />
  <path
     d="m 424,1018 h 3 l 2,8 4,5 5,2 h 15 l 9,-1 v 3 l -10,3 h -12 l -8,-3 -5,-5 -2,-5 -13,9 -7,3 -6,1 h -11 l -7,-3 -4,-4 v -3 l -10,8 -9,4 -4,1 h -11 l 2,-2 16,-4 10,-7 6,-7 h 3 v 7 l 5,5 4,1 h 10 l 12,-4 8,-6 z"
     fill="#dbdbdb"
     id="path7" />
  <rect
     style="fill:#008000;stroke-width:1.67088"
     id="rect7"
     width="128.27838"
     height="103.52036"
     x="97.614021"
     y="44.651463" />
  <rect
     style="fill:#008000;stroke-width:1.67088"
     id="rect7-4"
     width="128.27838"
     height="103.52036"
     x="98.790794"
     y="154.92821" />
  <rect
     style="fill:#008000;stroke-width:1.67088"
     id="rect7-4-0"
     width="128.27838"
     height="103.52036"
     x="99.623978"
     y="267.71136" />
  <rect
     style="fill:#008000;stroke-width:1.67088"
     id="rect7-9"
     width="128.27838"
     height="103.52036"
     x="350.44186"
     y="45.093853" />
  <rect
     style="fill:#008000;stroke-width:1.67088"
     id="rect7-4-3"
     width="128.27838"
     height="103.52036"
     x="351.61862"
     y="155.37059" />
  <rect
     style="fill:#008000;stroke-width:1.67088"
     id="rect7-4-0-3"
     width="128.27838"
     height="103.52036"
     x="352.45181"
     y="268.15375" />
  <rect
     style="fill:#552200;stroke-width:0.592427"
     id="rect7-1-6-0-1"
     width="78.443893"
     height="21.281479"
     x="251.85332"
     y="47.202904" />
  <path
     d="m 305.00124,50.884708 h 1.87215 l 1.2481,4.459902 2.4962,2.78744 3.12025,1.114975 h 9.36076 l 5.61646,-0.557488 v 1.672464 l -6.24051,1.672463 h -7.4886 l -4.99241,-1.672463 -3.12025,-2.787439 -1.2481,-2.787439 -8.11266,5.01739 -4.36835,1.672464 -3.7443,0.557487 h -6.86456 l -4.36835,-1.672463 -2.4962,-2.229951 v -1.672464 l -6.24051,4.459903 -5.61645,2.229951 -2.49621,0.557488 h -6.86455 l 1.2481,-1.114976 9.98481,-2.229951 6.2405,-3.902415 3.74431,-3.902415 h 1.87215 v 3.902415 l 3.12024,2.787439 2.49621,0.557488 h 6.24051 l 7.4886,-2.229951 4.9924,-3.344927 z"
     fill="#dbdbdb"
     id="path7-8"
     style="fill:#803300;stroke-width:0.589831" />
  <rect
     style="fill:#552200;stroke-width:0.592427"
     id="rect7-1-6-0-1-1"
     width="78.443893"
     height="21.281479"
     x="251.12169"
     y="73.490051" />
  <path
     d="m 304.26961,77.171858 h 1.87215 l 1.2481,4.459902 2.4962,2.78744 3.12025,1.114975 h 9.36076 l 5.61646,-0.557488 v 1.672464 l -6.24051,1.672463 h -7.4886 l -4.99241,-1.672463 -3.12025,-2.787439 -1.2481,-2.787439 -8.11266,5.01739 -4.36835,1.672464 -3.7443,0.557487 h -6.86456 l -4.36835,-1.672463 -2.4962,-2.229951 v -1.672464 l -6.24051,4.459903 -5.61645,2.229951 -2.49621,0.557488 h -6.86455 l 1.2481,-1.114976 9.98481,-2.229951 6.2405,-3.902415 3.74431,-3.902415 h 1.87215 v 3.902415 l 3.12024,2.787439 2.49621,0.557488 h 6.24051 l 7.4886,-2.229951 4.9924,-3.344927 z"
     fill="#dbdbdb"
     id="path7-8-4"
     style="fill:#803300;stroke-width:0.589831" />
  <rect
     style="fill:#552200;stroke-width:0.592427"
     id="rect7-1-6-0-1-5"
     width="78.443893"
     height="21.281479"
     x="251.6416"
     y="99.33477" />
  <path
     d="m 304.78952,103.01658 h 1.87215 l 1.2481,4.4599 2.4962,2.78744 3.12025,1.11497 h 9.36076 l 5.61646,-0.55748 v 1.67246 l -6.24051,1.67246 h -7.4886 l -4.99241,-1.67246 -3.12025,-2.78744 -1.2481,-2.78744 -8.11266,5.01739 -4.36835,1.67247 -3.7443,0.55748 h -6.86456 l -4.36835,-1.67246 -2.4962,-2.22995 v -1.67246 l -6.24051,4.4599 -5.61645,2.22995 -2.49621,0.55749 h -6.86455 l 1.2481,-1.11498 9.98481,-2.22995 6.2405,-3.90241 3.74431,-3.90242 h 1.87215 v 3.90242 l 3.12024,2.78743 2.49621,0.55749 h 6.24051 l 7.4886,-2.22995 4.9924,-3.34493 z"
     fill="#dbdbdb"
     id="path7-8-3"
     style="fill:#803300;stroke-width:0.589831" />
  <rect
     style="fill:#552200;stroke-width:0.592427"
     id="rect7-1-6-0-1-1-1"
     width="78.443893"
     height="21.281479"
     x="250.90997"
     y="125.62192" />
  <path
     d="m 304.05789,129.30372 h 1.87215 l 1.2481,4.45991 2.4962,2.78744 3.12025,1.11497 h 9.36076 l 5.61646,-0.55749 v 1.67247 l -6.24051,1.67246 h -7.4886 l -4.99241,-1.67246 -3.12025,-2.78744 -1.2481,-2.78744 -8.11266,5.01739 -4.36835,1.67246 -3.7443,0.55749 h -6.86456 l -4.36835,-1.67246 -2.4962,-2.22995 v -1.67247 l -6.24051,4.45991 -5.61645,2.22995 -2.49621,0.55748 h -6.86455 l 1.2481,-1.11497 9.98481,-2.22995 6.2405,-3.90242 3.74431,-3.90241 h 1.87215 v 3.90241 l 3.12024,2.78744 2.49621,0.55749 h 6.24051 l 7.4886,-2.22995 4.9924,-3.34493 z"
     fill="#dbdbdb"
     id="path7-8-4-7"
     style="fill:#803300;stroke-width:0.589831" />
  <rect
     style="fill:#552200;stroke-width:0.592427"
     id="rect7-1-6-0-1-6"
     width="78.443893"
     height="21.281479"
     x="251.77965"
     y="151.93394" />
  <path
     d="m 304.92757,155.61576 h 1.87215 l 1.2481,4.4599 2.4962,2.78744 3.12025,1.11497 h 9.36076 l 5.61646,-0.55748 v 1.67246 l -6.24051,1.67246 h -7.4886 l -4.99241,-1.67246 -3.12025,-2.78744 -1.2481,-2.78744 -8.11266,5.01739 -4.36835,1.67247 -3.7443,0.55748 h -6.86456 l -4.36835,-1.67246 -2.4962,-2.22995 v -1.67247 l -6.24051,4.45991 -5.61645,2.22995 -2.49621,0.55749 h -6.86455 l 1.2481,-1.11498 9.98481,-2.22995 6.2405,-3.90242 3.74431,-3.90241 h 1.87215 v 3.90241 l 3.12024,2.78744 2.49621,0.55749 h 6.24051 l 7.4886,-2.22995 4.9924,-3.34493 z"
     fill="#dbdbdb"
     id="path7-8-2"
     style="fill:#803300;stroke-width:0.589831" />
  <rect
     style="fill:#552200;stroke-width:0.592427"
     id="rect7-1-6-0-1-1-4"
     width="78.443893"
     height="21.281479"
     x="251.04802"
     y="178.2211" />
  <path
     d="m 304.19594,181.9029 h 1.87215 l 1.2481,4.45991 2.4962,2.78744 3.12025,1.11497 h 9.36076 l 5.61646,-0.55749 v 1.67247 l -6.24051,1.67246 h -7.4886 l -4.99241,-1.67246 -3.12025,-2.78744 -1.2481,-2.78744 -8.11266,5.01739 -4.36835,1.67246 -3.7443,0.55749 h -6.86456 l -4.36835,-1.67246 -2.4962,-2.22995 v -1.67247 l -6.24051,4.4599 -5.61645,2.22996 -2.49621,0.55748 h -6.86455 l 1.2481,-1.11497 9.98481,-2.22995 6.2405,-3.90242 3.74431,-3.90241 h 1.87215 v 3.90241 l 3.12024,2.78744 2.49621,0.55749 h 6.24051 l 7.4886,-2.22995 4.9924,-3.34493 z"
     fill="#dbdbdb"
     id="path7-8-4-4"
     style="fill:#803300;stroke-width:0.589831" />
  <rect
     style="fill:#552200;stroke-width:0.592427"
     id="rect7-1-6-0-1-5-0"
     width="78.443893"
     height="21.281479"
     x="251.56795"
     y="204.06581" />
  <path
     d="m 304.71585,207.74763 h 1.87215 l 1.2481,4.4599 2.4962,2.78744 3.12025,1.11497 h 9.36076 l 5.61646,-0.55748 v 1.67246 l -6.24051,1.67246 h -7.4886 l -4.99241,-1.67246 -3.12025,-2.78744 -1.2481,-2.78744 -8.11266,5.01739 -4.36835,1.67247 -3.7443,0.55748 h -6.86456 l -4.36835,-1.67246 -2.4962,-2.22995 v -1.67246 l -6.24051,4.4599 -5.61645,2.22995 -2.49621,0.55749 h -6.86455 l 1.2481,-1.11498 9.98481,-2.22995 6.2405,-3.90241 3.74431,-3.90242 h 1.87215 v 3.90242 l 3.12024,2.78743 2.49621,0.55749 h 6.24051 l 7.4886,-2.22995 4.9924,-3.34493 z"
     fill="#dbdbdb"
     id="path7-8-3-6"
     style="fill:#803300;stroke-width:0.589831" />
  <rect
     style="fill:#552200;stroke-width:0.592427"
     id="rect7-1-6-0-1-1-1-7"
     width="78.443893"
     height="21.281479"
     x="250.83632"
     y="230.35295" />
  <path
     d="m 303.98422,234.03477 h 1.87215 l 1.2481,4.45991 2.4962,2.78744 3.12025,1.11497 h 9.36076 l 5.61646,-0.55749 v 1.67247 l -6.24051,1.67246 h -7.4886 l -4.99241,-1.67246 -3.12025,-2.78744 -1.2481,-2.78744 -8.11266,5.01739 -4.36835,1.67246 -3.7443,0.55749 h -6.86456 l -4.36835,-1.67246 -2.4962,-2.22995 v -1.67247 l -6.24051,4.45991 -5.61645,2.22995 -2.49621,0.55748 h -6.86455 l 1.2481,-1.11497 9.98481,-2.22995 6.2405,-3.90242 3.74431,-3.90241 h 1.87215 v 3.90241 l 3.12024,2.78744 2.49621,0.55749 h 6.24051 l 7.4886,-2.22995 4.9924,-3.34493 z"
     fill="#dbdbdb"
     id="path7-8-4-7-3"
     style="fill:#803300;stroke-width:0.589831" />
  <rect
     style="fill:#552200;stroke-width:0.592427"
     id="rect7-1-6-0-1-17"
     width="78.443893"
     height="21.281479"
     x="250.45154"
     y="259.56647" />
  <path
     d="m 303.59946,263.24829 h 1.87215 l 1.2481,4.4599 2.4962,2.78744 3.12025,1.11497 h 9.36076 l 5.61646,-0.55748 v 1.67246 l -6.24051,1.67246 h -7.4886 l -4.99241,-1.67246 -3.12025,-2.78744 -1.2481,-2.78744 -8.11266,5.01739 -4.36835,1.67247 -3.7443,0.55748 h -6.86456 l -4.36835,-1.67246 -2.4962,-2.22995 v -1.67246 l -6.24051,4.4599 -5.61645,2.22995 -2.49621,0.55749 h -6.86455 l 1.2481,-1.11498 9.98481,-2.22995 6.2405,-3.90241 3.74431,-3.90242 h 1.87215 v 3.90242 l 3.12024,2.78743 2.49621,0.55749 h 6.24051 l 7.4886,-2.22995 4.9924,-3.34493 z"
     fill="#dbdbdb"
     id="path7-8-0"
     style="fill:#803300;stroke-width:0.589831" />
  <rect
     style="fill:#552200;stroke-width:0.592427"
     id="rect7-1-6-0-1-1-5"
     width="78.443893"
     height="21.281479"
     x="249.71991"
     y="285.85364" />
  <path
     d="m 302.86783,289.53544 h 1.87215 l 1.2481,4.4599 2.4962,2.78744 3.12025,1.11497 h 9.36076 l 5.61646,-0.55748 v 1.67246 l -6.24051,1.67246 h -7.4886 l -4.99241,-1.67246 -3.12025,-2.78744 -1.2481,-2.78744 -8.11266,5.01739 -4.36835,1.67247 -3.7443,0.55748 h -6.86456 l -4.36835,-1.67246 -2.4962,-2.22995 v -1.67246 l -6.24051,4.4599 -5.61645,2.22995 -2.49621,0.55749 h -6.86455 l 1.2481,-1.11498 9.98481,-2.22995 6.2405,-3.90241 3.74431,-3.90242 h 1.87215 v 3.90242 l 3.12024,2.78743 2.49621,0.55749 h 6.24051 l 7.4886,-2.22995 4.9924,-3.34492 z"
     fill="#dbdbdb"
     id="path7-8-4-5"
     style="fill:#803300;stroke-width:0.589831" />
  <rect
     style="fill:#552200;stroke-width:0.592427"
     id="rect7-1-6-0-1-5-4"
     width="78.443893"
     height="21.281479"
     x="250.23982"
     y="311.69833" />
  <path
     d="m 303.38774,315.38016 h 1.87215 l 1.2481,4.4599 2.4962,2.78744 3.12025,1.11497 h 9.36076 l 5.61646,-0.55748 v 1.67246 l -6.24051,1.67246 h -7.4886 l -4.99241,-1.67246 -3.12025,-2.78744 -1.2481,-2.78744 -8.11266,5.01739 -4.36835,1.67247 -3.7443,0.55748 h -6.86456 l -4.36835,-1.67246 -2.4962,-2.22995 v -1.67246 l -6.24051,4.4599 -5.61645,2.22995 -2.49621,0.55749 h -6.86455 l 1.2481,-1.11498 9.98481,-2.22995 6.2405,-3.90241 3.74431,-3.90242 h 1.87215 v 3.90242 l 3.12024,2.78743 2.49621,0.55749 h 6.24051 l 7.4886,-2.22995 4.9924,-3.34493 z"
     fill="#dbdbdb"
     id="path7-8-3-9"
     style="fill:#803300;stroke-width:0.589831" />
  <rect
     style="fill:#552200;stroke-width:0.592427"
     id="rect7-1-6-0-1-1-1-9"
     width="78.443893"
     height="21.281479"
     x="249.50819"
     y="337.9855" />
  <path
     d="m 302.65611,341.6673 h 1.87215 l 1.2481,4.45991 2.4962,2.78744 3.12025,1.11497 h 9.36076 l 5.61646,-0.55749 v 1.67247 l -6.24051,1.67246 h -7.4886 l -4.99241,-1.67246 -3.12025,-2.78744 -1.2481,-2.78744 -8.11266,5.01739 -4.36835,1.67246 -3.7443,0.55749 h -6.86456 l -4.36835,-1.67246 -2.4962,-2.22995 v -1.67247 l -6.24051,4.45991 -5.61645,2.22995 -2.49621,0.55748 h -6.86455 l 1.2481,-1.11497 9.98481,-2.22995 6.2405,-3.90242 3.74431,-3.90241 h 1.87215 v 3.90241 l 3.12024,2.78744 2.49621,0.55749 h 6.24051 l 7.4886,-2.22995 4.9924,-3.34493 z"
     fill="#dbdbdb"
     id="path7-8-4-7-6"
     style="fill:#803300;stroke-width:0.589831" />
  <rect
     style="fill:#552200;stroke-width:0.592427"
     id="rect7-1-6-0-1-6-5"
     width="78.443893"
     height="21.281479"
     x="250.37787"
     y="364.29752" />
  <path
     d="m 303.52579,367.97934 h 1.87215 l 1.2481,4.4599 2.4962,2.78744 3.12025,1.11497 h 9.36076 l 5.61646,-0.55748 v 1.67246 l -6.24051,1.67246 h -7.4886 l -4.99241,-1.67246 -3.12025,-2.78744 -1.2481,-2.78744 -8.11266,5.01739 -4.36835,1.67247 -3.7443,0.55748 h -6.86456 l -4.36835,-1.67246 -2.4962,-2.22995 v -1.67247 l -6.24051,4.45991 -5.61645,2.22995 -2.49621,0.55749 h -6.86455 l 1.2481,-1.11498 9.98481,-2.22995 6.2405,-3.90242 3.74431,-3.90241 h 1.87215 v 3.90241 l 3.12024,2.78744 2.49621,0.55749 h 6.24051 l 7.4886,-2.22995 4.9924,-3.34493 z"
     fill="#dbdbdb"
     id="path7-8-2-8"
     style="fill:#803300;stroke-width:0.589831" />
  <rect
     style="fill:#552200;stroke-width:0.592427"
     id="rect7-1-6-0-1-1-4-1"
     width="78.443893"
     height="21.281479"
     x="249.64624"
     y="390.58466" />
  <path
     d="m 302.79416,394.26648 h 1.87215 l 1.2481,4.45991 2.4962,2.78744 3.12025,1.11497 h 9.36076 l 5.61646,-0.55749 v 1.67247 l -6.24051,1.67246 h -7.4886 l -4.99241,-1.67246 -3.12025,-2.78744 -1.2481,-2.78744 -8.11266,5.01739 -4.36835,1.67246 -3.7443,0.55749 h -6.86456 l -4.36835,-1.67246 -2.4962,-2.22995 v -1.67247 l -6.24051,4.4599 -5.61645,2.22996 -2.49621,0.55748 h -6.86455 l 1.2481,-1.11497 9.98481,-2.22995 6.2405,-3.90242 3.74431,-3.90241 h 1.87215 v 3.90241 l 3.12024,2.78744 2.49621,0.55749 h 6.24051 l 7.4886,-2.22995 4.9924,-3.34493 z"
     fill="#dbdbdb"
     id="path7-8-4-4-6"
     style="fill:#803300;stroke-width:0.589831" />
  <rect
     style="fill:#552200;stroke-width:0.592427"
     id="rect7-1-6-0-1-5-0-3"
     width="78.443893"
     height="21.281479"
     x="250.16617"
     y="416.42938" />
  <path
     d="m 303.31407,420.11121 h 1.87215 l 1.2481,4.4599 2.4962,2.78744 3.12025,1.11497 h 9.36076 l 5.61646,-0.55748 v 1.67246 l -6.24051,1.67246 h -7.4886 l -4.99241,-1.67246 -3.12025,-2.78744 -1.2481,-2.78744 -8.11266,5.01739 -4.36835,1.67247 -3.7443,0.55748 h -6.86456 l -4.36835,-1.67246 -2.4962,-2.22995 v -1.67246 l -6.24051,4.4599 -5.61645,2.22995 -2.49621,0.55749 h -6.86455 l 1.2481,-1.11498 9.98481,-2.22995 6.2405,-3.90241 3.74431,-3.90242 h 1.87215 v 3.90242 l 3.12024,2.78743 2.49621,0.55749 h 6.24051 l 7.4886,-2.22995 4.9924,-3.34493 z"
     fill="#dbdbdb"
     id="path7-8-3-6-6"
     style="fill:#803300;stroke-width:0.589831" />
  <rect
     style="fill:#552200;stroke-width:0.592427"
     id="rect7-1-6-0-1-1-1-7-0"
     width="78.443893"
     height="21.281479"
     x="249.43454"
     y="442.71652" />
  <path
     d="m 302.58244,446.39835 h 1.87215 l 1.2481,4.45991 2.4962,2.78744 3.12025,1.11497 h 9.36076 l 5.61646,-0.55749 v 1.67247 l -6.24051,1.67246 h -7.4886 l -4.99241,-1.67246 -3.12025,-2.78744 -1.2481,-2.78744 -8.11266,5.01739 -4.36835,1.67246 -3.7443,0.55749 h -6.86456 l -4.36835,-1.67246 -2.4962,-2.22995 v -1.67247 l -6.24051,4.45991 -5.61645,2.22995 -2.49621,0.55748 h -6.86455 l 1.2481,-1.11497 9.98481,-2.22995 6.2405,-3.90242 3.74431,-3.90241 h 1.87215 v 3.90241 l 3.12024,2.78744 2.49621,0.55749 h 6.24051 l 7.4886,-2.22995 4.9924,-3.34493 z"
     fill="#dbdbdb"
     id="path7-8-4-7-3-1"
     style="fill:#803300;stroke-width:0.589831" />
  <rect
     style="fill:#008000;stroke-width:1.67088"
     id="rect7-2"
     width="128.27838"
     height="103.52036"
     x="611.87396"
     y="44.123791" />
  <rect
     style="fill:#008000;stroke-width:1.67088"
     id="rect7-4-1"
     width="128.27838"
     height="103.52036"
     x="613.05078"
     y="154.40053" />
  <rect
     style="fill:#008000;stroke-width:1.67088"
     id="rect7-4-0-8"
     width="128.27838"
     height="103.52036"
     x="613.88391"
     y="267.18365" />
  <rect
     style="fill:#008000;stroke-width:1.67088"
     id="rect7-9-4"
     width="128.27838"
     height="103.52036"
     x="864.70178"
     y="44.566174" />
  <rect
     style="fill:#008000;stroke-width:1.67088"
     id="rect7-4-3-6"
     width="128.27838"
     height="103.52036"
     x="865.87854"
     y="154.84291" />
  <rect
     style="fill:#008000;stroke-width:1.67088"
     id="rect7-4-0-3-0"
     width="128.27838"
     height="103.52036"
     x="866.71173"
     y="267.62604" />
  <rect
     style="fill:#552200;stroke-width:0.592427"
     id="rect7-1-6-0-1-4"
     width="78.443893"
     height="21.281479"
     x="766.11328"
     y="46.675243" />
  <path
     d="m 819.26121,50.357043 h 1.87215 l 1.2481,4.4599 2.4962,2.78744 3.12025,1.11498 h 9.36076 l 5.61646,-0.55749 v 1.67246 l -6.24051,1.67246 h -7.4886 l -4.99241,-1.67246 -3.12025,-2.78744 -1.2481,-2.78744 -8.11266,5.01739 -4.36835,1.67247 -3.7443,0.55748 h -6.86456 l -4.36835,-1.67246 -2.4962,-2.22995 v -1.67246 l -6.24051,4.4599 -5.61645,2.22995 -2.49621,0.55749 h -6.86455 l 1.2481,-1.11498 9.98481,-2.22995 6.2405,-3.90241 3.74431,-3.90242 h 1.87215 v 3.90242 l 3.12024,2.78744 2.49621,0.55748 h 6.24051 l 7.4886,-2.22995 4.9924,-3.34492 z"
     fill="#dbdbdb"
     id="path7-8-7"
     style="fill:#803300;stroke-width:0.589831" />
  <rect
     style="fill:#552200;stroke-width:0.592427"
     id="rect7-1-6-0-1-1-8"
     width="78.443893"
     height="21.281479"
     x="765.38165"
     y="72.962387" />
  <path
     d="m 818.52958,76.644193 h 1.87215 l 1.2481,4.4599 2.4962,2.78744 3.12025,1.11498 h 9.36076 l 5.61646,-0.55749 v 1.67246 l -6.24051,1.67246 h -7.4886 l -4.99241,-1.67246 -3.12025,-2.78744 -1.2481,-2.78744 -8.11266,5.01739 -4.36835,1.67247 -3.7443,0.55748 h -6.86456 l -4.36835,-1.67246 -2.4962,-2.22995 v -1.67246 l -6.24051,4.4599 -5.61645,2.22995 -2.49621,0.55749 h -6.86455 l 1.2481,-1.11498 9.98481,-2.22995 6.2405,-3.90241 3.74431,-3.90242 h 1.87215 v 3.90242 l 3.12024,2.78744 2.49621,0.55748 h 6.24051 l 7.4886,-2.22995 4.9924,-3.34492 z"
     fill="#dbdbdb"
     id="path7-8-4-78"
     style="fill:#803300;stroke-width:0.589831" />
  <rect
     style="fill:#552200;stroke-width:0.592427"
     id="rect7-1-6-0-1-5-47"
     width="78.443893"
     height="21.281479"
     x="765.90155"
     y="98.807114" />
  <path
     d="m 819.04949,102.48891 h 1.87215 l 1.2481,4.4599 2.4962,2.78744 3.12025,1.11497 h 9.36076 l 5.61646,-0.55748 v 1.67246 l -6.24051,1.67246 h -7.4886 l -4.99241,-1.67246 -3.12025,-2.78744 -1.2481,-2.78744 -8.11266,5.01739 -4.36835,1.67247 -3.7443,0.55748 h -6.86456 l -4.36835,-1.67246 -2.4962,-2.22995 v -1.67246 l -6.24051,4.4599 -5.61645,2.22995 -2.49621,0.55749 h -6.86455 l 1.2481,-1.11498 9.98481,-2.22995 6.2405,-3.90241 3.74431,-3.90242 h 1.87215 v 3.90242 l 3.12024,2.78743 2.49621,0.55749 h 6.24051 l 7.4886,-2.22995 4.9924,-3.34493 z"
     fill="#dbdbdb"
     id="path7-8-3-93"
     style="fill:#803300;stroke-width:0.589831" />
  <rect
     style="fill:#552200;stroke-width:0.592427"
     id="rect7-1-6-0-1-1-1-0"
     width="78.443893"
     height="21.281479"
     x="765.16992"
     y="125.09425" />
  <path
     d="m 818.31786,128.77605 h 1.87215 l 1.2481,4.45991 2.4962,2.78744 3.12025,1.11497 h 9.36076 l 5.61646,-0.55749 v 1.67247 l -6.24051,1.67246 h -7.4886 l -4.99241,-1.67246 -3.12025,-2.78744 -1.2481,-2.78744 -8.11266,5.01739 -4.36835,1.67246 -3.7443,0.55749 h -6.86456 l -4.36835,-1.67246 -2.4962,-2.22995 v -1.67247 l -6.24051,4.45991 -5.61645,2.22995 -2.49621,0.55748 h -6.86455 l 1.2481,-1.11497 9.98481,-2.22995 6.2405,-3.90242 3.74431,-3.90241 h 1.87215 v 3.90241 l 3.12024,2.78744 2.49621,0.55749 h 6.24051 l 7.4886,-2.22995 4.9924,-3.34493 z"
     fill="#dbdbdb"
     id="path7-8-4-7-1"
     style="fill:#803300;stroke-width:0.589831" />
  <rect
     style="fill:#552200;stroke-width:0.592427"
     id="rect7-1-6-0-1-6-2"
     width="78.443893"
     height="21.281479"
     x="766.03961"
     y="151.40627" />
  <path
     d="m 819.18754,155.08809 h 1.87215 l 1.2481,4.4599 2.4962,2.78744 3.12025,1.11497 h 9.36076 l 5.61646,-0.55748 v 1.67246 l -6.24051,1.67246 h -7.4886 l -4.99241,-1.67246 -3.12025,-2.78744 -1.2481,-2.78744 -8.11266,5.01739 -4.36835,1.67247 -3.7443,0.55748 h -6.86456 l -4.36835,-1.67246 -2.4962,-2.22995 v -1.67247 l -6.24051,4.45991 -5.61645,2.22995 -2.49621,0.55749 h -6.86455 l 1.2481,-1.11498 9.98481,-2.22995 6.2405,-3.90242 3.74431,-3.90241 h 1.87215 v 3.90241 l 3.12024,2.78744 2.49621,0.55749 h 6.24051 l 7.4886,-2.22995 4.9924,-3.34493 z"
     fill="#dbdbdb"
     id="path7-8-2-7"
     style="fill:#803300;stroke-width:0.589831" />
  <rect
     style="fill:#552200;stroke-width:0.592427"
     id="rect7-1-6-0-1-1-4-7"
     width="78.443893"
     height="21.281479"
     x="765.30798"
     y="177.69344" />
  <path
     d="m 818.45591,181.37523 h 1.87215 l 1.2481,4.45991 2.4962,2.78744 3.12025,1.11497 h 9.36076 l 5.61646,-0.55749 v 1.67247 l -6.24051,1.67246 h -7.4886 l -4.99241,-1.67246 -3.12025,-2.78744 -1.2481,-2.78744 -8.11266,5.01739 -4.36835,1.67246 -3.7443,0.55749 h -6.86456 l -4.36835,-1.67246 -2.4962,-2.22995 v -1.67247 l -6.24051,4.4599 -5.61645,2.22996 -2.49621,0.55748 h -6.86455 l 1.2481,-1.11497 9.98481,-2.22995 6.2405,-3.90242 3.74431,-3.90241 h 1.87215 v 3.90241 l 3.12024,2.78744 2.49621,0.55749 h 6.24051 l 7.4886,-2.22995 4.9924,-3.34493 z"
     fill="#dbdbdb"
     id="path7-8-4-4-65"
     style="fill:#803300;stroke-width:0.589831" />
  <rect
     style="fill:#552200;stroke-width:0.592427"
     id="rect7-1-6-0-1-5-0-2"
     width="78.443893"
     height="21.281479"
     x="765.82788"
     y="203.53813" />
  <path
     d="m 818.97582,207.21996 h 1.87215 l 1.2481,4.4599 2.4962,2.78744 3.12025,1.11497 h 9.36076 l 5.61646,-0.55748 v 1.67246 l -6.24051,1.67246 h -7.4886 l -4.99241,-1.67246 -3.12025,-2.78744 -1.2481,-2.78744 -8.11266,5.01739 -4.36835,1.67247 -3.7443,0.55748 H 796.51 l -4.36835,-1.67246 -2.4962,-2.22995 v -1.67246 l -6.24051,4.4599 -5.61645,2.22995 -2.49621,0.55749 h -6.86455 l 1.2481,-1.11498 9.98481,-2.22995 6.2405,-3.90241 3.74431,-3.90242 h 1.87215 v 3.90242 l 3.12024,2.78743 2.49621,0.55749 h 6.24051 l 7.4886,-2.22995 4.9924,-3.34493 z"
     fill="#dbdbdb"
     id="path7-8-3-6-3"
     style="fill:#803300;stroke-width:0.589831" />
  <rect
     style="fill:#552200;stroke-width:0.592427"
     id="rect7-1-6-0-1-1-1-7-4"
     width="78.443893"
     height="21.281479"
     x="765.09625"
     y="229.82527" />
  <path
     d="m 818.24419,233.5071 h 1.87215 l 1.2481,4.45991 2.4962,2.78744 3.12025,1.11497 h 9.36076 l 5.61646,-0.55749 v 1.67247 l -6.24051,1.67246 h -7.4886 l -4.99241,-1.67246 -3.12025,-2.78744 -1.2481,-2.78744 -8.11266,5.01739 -4.36835,1.67246 -3.7443,0.55749 h -6.86456 l -4.36835,-1.67246 -2.4962,-2.22995 v -1.67247 l -6.24051,4.45991 -5.61645,2.22995 -2.49621,0.55748 h -6.86455 l 1.2481,-1.11497 9.98481,-2.22995 6.2405,-3.90242 3.74431,-3.90241 h 1.87215 v 3.90241 l 3.12024,2.78744 2.49621,0.55749 h 6.24051 l 7.4886,-2.22995 4.9924,-3.34493 z"
     fill="#dbdbdb"
     id="path7-8-4-7-3-4"
     style="fill:#803300;stroke-width:0.589831" />
  <rect
     style="fill:#552200;stroke-width:0.592427"
     id="rect7-1-6-0-1-17-7"
     width="78.443893"
     height="21.281479"
     x="764.71149"
     y="259.03876" />
  <path
     d="m 817.85943,262.72062 h 1.87215 l 1.2481,4.4599 2.4962,2.78744 3.12025,1.11497 h 9.36076 l 5.61646,-0.55748 v 1.67246 l -6.24051,1.67246 h -7.4886 l -4.99241,-1.67246 -3.12025,-2.78744 -1.2481,-2.78744 -8.11266,5.01739 -4.36835,1.67247 -3.7443,0.55748 h -6.86456 l -4.36835,-1.67246 -2.4962,-2.22995 v -1.67246 l -6.24051,4.4599 -5.61645,2.22995 -2.49621,0.55749 h -6.86455 l 1.2481,-1.11498 9.98481,-2.22995 6.2405,-3.90241 3.74431,-3.90242 h 1.87215 v 3.90242 l 3.12024,2.78743 2.49621,0.55749 h 6.24051 l 7.4886,-2.22995 4.9924,-3.34493 z"
     fill="#dbdbdb"
     id="path7-8-0-8"
     style="fill:#803300;stroke-width:0.589831" />
  <rect
     style="fill:#552200;stroke-width:0.592427"
     id="rect7-1-6-0-1-1-5-1"
     width="78.443893"
     height="21.281479"
     x="763.97986"
     y="285.32593" />
  <path
     d="m 817.1278,289.00777 h 1.87215 l 1.2481,4.4599 2.4962,2.78744 3.12025,1.11497 h 9.36076 l 5.61646,-0.55748 v 1.67246 l -6.24051,1.67246 h -7.4886 l -4.99241,-1.67246 -3.12025,-2.78744 -1.2481,-2.78744 -8.11266,5.01739 -4.36835,1.67247 -3.7443,0.55748 h -6.86456 l -4.36835,-1.67246 -2.4962,-2.22995 v -1.67246 l -6.24051,4.4599 -5.61645,2.22995 -2.49621,0.55749 h -6.86455 l 1.2481,-1.11498 9.98481,-2.22995 6.2405,-3.90241 3.74431,-3.90242 h 1.87215 v 3.90242 l 3.12024,2.78743 2.49621,0.55749 h 6.24051 l 7.4886,-2.22995 4.9924,-3.34492 z"
     fill="#dbdbdb"
     id="path7-8-4-5-4"
     style="fill:#803300;stroke-width:0.589831" />
  <rect
     style="fill:#552200;stroke-width:0.592427"
     id="rect7-1-6-0-1-5-4-8"
     width="78.443893"
     height="21.281479"
     x="764.49976"
     y="311.17065" />
  <path
     d="m 817.64771,314.85249 h 1.87215 l 1.2481,4.4599 2.4962,2.78744 3.12025,1.11497 h 9.36076 l 5.61646,-0.55748 v 1.67246 l -6.24051,1.67246 h -7.4886 l -4.99241,-1.67246 -3.12025,-2.78744 -1.2481,-2.78744 -8.11266,5.01739 -4.36835,1.67247 -3.7443,0.55748 h -6.86456 l -4.36835,-1.67246 -2.4962,-2.22995 v -1.67246 l -6.24051,4.4599 -5.61645,2.22995 -2.49621,0.55749 h -6.86455 l 1.2481,-1.11498 9.98481,-2.22995 6.2405,-3.90241 3.74431,-3.90242 h 1.87215 v 3.90242 l 3.12024,2.78743 2.49621,0.55749 h 6.24051 l 7.4886,-2.22995 4.9924,-3.34493 z"
     fill="#dbdbdb"
     id="path7-8-3-9-5"
     style="fill:#803300;stroke-width:0.589831" />
  <rect
     style="fill:#552200;stroke-width:0.592427"
     id="rect7-1-6-0-1-1-1-9-5"
     width="78.443893"
     height="21.281479"
     x="763.76813"
     y="337.45782" />
  <path
     d="m 816.91608,341.13963 h 1.87215 l 1.2481,4.45991 2.4962,2.78744 3.12025,1.11497 h 9.36076 l 5.61646,-0.55749 v 1.67247 l -6.24051,1.67246 h -7.4886 l -4.99241,-1.67246 -3.12025,-2.78744 -1.2481,-2.78744 -8.11266,5.01739 -4.36835,1.67246 -3.7443,0.55749 h -6.86456 l -4.36835,-1.67246 -2.4962,-2.22995 v -1.67247 l -6.24051,4.45991 -5.61645,2.22995 -2.49621,0.55748 h -6.86455 l 1.2481,-1.11497 9.98481,-2.22995 6.2405,-3.90242 3.74431,-3.90241 h 1.87215 v 3.90241 l 3.12024,2.78744 2.49621,0.55749 h 6.24051 l 7.4886,-2.22995 4.9924,-3.34493 z"
     fill="#dbdbdb"
     id="path7-8-4-7-6-6"
     style="fill:#803300;stroke-width:0.589831" />
  <rect
     style="fill:#552200;stroke-width:0.592427"
     id="rect7-1-6-0-1-6-5-1"
     width="78.443893"
     height="21.281479"
     x="764.63782"
     y="363.76984" />
  <path
     d="m 817.78576,367.45167 h 1.87215 l 1.2481,4.4599 2.4962,2.78744 3.12025,1.11497 h 9.36076 l 5.61646,-0.55748 v 1.67246 l -6.24051,1.67246 h -7.4886 l -4.99241,-1.67246 -3.12025,-2.78744 -1.2481,-2.78744 -8.11266,5.01739 -4.36835,1.67247 -3.7443,0.55748 h -6.86456 l -4.36835,-1.67246 -2.4962,-2.22995 v -1.67247 l -6.24051,4.45991 -5.61645,2.22995 -2.49621,0.55749 h -6.86455 l 1.2481,-1.11498 9.98481,-2.22995 6.2405,-3.90242 3.74431,-3.90241 h 1.87215 v 3.90241 l 3.12024,2.78744 2.49621,0.55749 h 6.24051 l 7.4886,-2.22995 4.9924,-3.34493 z"
     fill="#dbdbdb"
     id="path7-8-2-8-2"
     style="fill:#803300;stroke-width:0.589831" />
  <rect
     style="fill:#552200;stroke-width:0.592427"
     id="rect7-1-6-0-1-1-4-1-6"
     width="78.443893"
     height="21.281479"
     x="763.90619"
     y="390.05695" />
  <path
     d="m 817.05413,393.73881 h 1.87215 l 1.2481,4.45991 2.4962,2.78744 3.12025,1.11497 h 9.36076 l 5.61646,-0.55749 v 1.67247 l -6.24051,1.67246 h -7.4886 l -4.99241,-1.67246 -3.12025,-2.78744 -1.2481,-2.78744 -8.11266,5.01739 -4.36835,1.67246 -3.7443,0.55749 h -6.86456 l -4.36835,-1.67246 -2.4962,-2.22995 v -1.67247 l -6.24051,4.4599 -5.61645,2.22996 -2.49621,0.55748 h -6.86455 l 1.2481,-1.11497 9.98481,-2.22995 6.2405,-3.90242 3.74431,-3.90241 h 1.87215 v 3.90241 l 3.12024,2.78744 2.49621,0.55749 h 6.24051 l 7.4886,-2.22995 4.9924,-3.34493 z"
     fill="#dbdbdb"
     id="path7-8-4-4-6-5"
     style="fill:#803300;stroke-width:0.589831" />
  <rect
     style="fill:#552200;stroke-width:0.592427"
     id="rect7-1-6-0-1-5-0-3-1"
     width="78.443893"
     height="21.281479"
     x="764.42609"
     y="415.90167" />
  <path
     d="m 817.57404,419.58354 h 1.87215 l 1.2481,4.4599 2.4962,2.78744 3.12025,1.11497 h 9.36076 l 5.61646,-0.55748 v 1.67246 l -6.24051,1.67246 h -7.4886 l -4.99241,-1.67246 -3.12025,-2.78744 -1.2481,-2.78744 -8.11266,5.01739 -4.36835,1.67247 -3.7443,0.55748 h -6.86456 l -4.36835,-1.67246 -2.4962,-2.22995 v -1.67246 l -6.24051,4.4599 -5.61645,2.22995 -2.49621,0.55749 h -6.86455 l 1.2481,-1.11498 9.98481,-2.22995 6.2405,-3.90241 3.74431,-3.90242 h 1.87215 v 3.90242 l 3.12024,2.78743 2.49621,0.55749 h 6.24051 l 7.4886,-2.22995 4.9924,-3.34493 z"
     fill="#dbdbdb"
     id="path7-8-3-6-6-6"
     style="fill:#803300;stroke-width:0.589831" />
  <rect
     style="fill:#552200;stroke-width:0.592427"
     id="rect7-1-6-0-1-1-1-7-0-5"
     width="78.443893"
     height="21.281479"
     x="763.69446"
     y="442.18884" />
  <path
     d="m 816.84241,445.87068 h 1.87215 l 1.2481,4.45991 2.4962,2.78744 3.12025,1.11497 h 9.36076 l 5.61646,-0.55749 v 1.67247 l -6.24051,1.67246 h -7.4886 l -4.99241,-1.67246 -3.12025,-2.78744 -1.2481,-2.78744 -8.11266,5.01739 -4.36835,1.67246 -3.7443,0.55749 h -6.86456 l -4.36835,-1.67246 -2.4962,-2.22995 v -1.67247 l -6.24051,4.45991 -5.61645,2.22995 -2.49621,0.55748 h -6.86455 l 1.2481,-1.11497 9.98481,-2.22995 6.2405,-3.90242 3.74431,-3.90241 h 1.87215 v 3.90241 l 3.12024,2.78744 2.49621,0.55749 h 6.24051 l 7.4886,-2.22995 4.9924,-3.34493 z"
     fill="#dbdbdb"
     id="path7-8-4-7-3-1-0"
     style="fill:#803300;stroke-width:0.589831" />
  <ellipse
     style="fill:#008000;fill-opacity:1;stroke-width:0.84375"
     id="parasol-1"
     cx="224.32159"
     cy="591.58008"
     rx="42.787037"
     ry="44.132515" />
  <ellipse
     style="fill:#008000;fill-opacity:1;stroke-width:0.84375"
     id="parasol-3"
     cx="434.77386"
     cy="591.58008"
     rx="42.787037"
     ry="44.132515" />
  <ellipse
     style="fill:#008000;fill-opacity:1;stroke-width:0.84375"
     id="parasol-2"
     cx="329.54773"
     cy="591.58008"
     rx="42.787037"
     ry="44.132515" />
  <ellipse
     style="fill:#008000;fill-opacity:1;stroke-width:0.84375"
     id="parasol-14"
     cx="855.67841"
     cy="708.83893"
     rx="42.787037"
     ry="44.132515" />
  <ellipse
     style="fill:#008000;fill-opacity:1;stroke-width:0.84375"
     id="parasol-13"
     cx="750.45227"
     cy="708.8064"
     rx="42.787037"
     ry="44.132515" />
  <ellipse
     style="fill:#008000;fill-opacity:1;stroke-width:0.84375"
     id="parasol-12"
     cx="645.22614"
     cy="708.8064"
     rx="42.787037"
     ry="44.132515" />
  <ellipse
     style="fill:#008000;fill-opacity:1;stroke-width:0.84375"
     id="parasol-11"
     cx="540"
     cy="708.8064"
     rx="42.787037"
     ry="44.132515" />
  <ellipse
     style="fill:#008000;fill-opacity:1;stroke-width:0.84375"
     id="parasol-8"
     cx="224.32158"
     cy="708.8064"
     rx="42.787037"
     ry="44.132515" />
  <ellipse
     style="fill:#008000;fill-opacity:1;stroke-width:0.84375"
     id="parasol-10"
     cx="434.77386"
     cy="708.8064"
     rx="42.787037"
     ry="44.132515" />
  <ellipse
     style="fill:#008000;fill-opacity:1;stroke-width:0.84375"
     id="parasol-9"
     cx="329.54773"
     cy="708.8064"
     rx="42.787037"
     ry="44.132515" />
</svg>
